<?xml version="1.0" encoding="utf-8"?>
<!-- Generator: Adobe Illustrator 21.1.0, SVG Export Plug-In . SVG Version: 6.00 Build 0)  -->
<svg version="1.1" xmlns="http://www.w3.org/2000/svg" xmlns:xlink="http://www.w3.org/1999/xlink" x="0px" y="0px"
	 viewBox="0 0 612 792" style="enable-background:new 0 0 612 792;" xml:space="preserve">
<style type="text/css">
	.st0{fill:#56C8E0;}
	.st1{fill:#EDEDED;}
	.st2{fill:#28344F;}
</style>
<g id="Sunset">
</g>
<g id="Letter_C">
	<g>
		<path class="st0" d="M196.3,395.8c0,18,2.8,33.7,8.4,47c5.6,13.3,12.9,24.3,22.1,33c9.1,8.7,19.4,15.2,30.9,19.5
			c11.4,4.3,23.2,6.5,35.2,6.5c12.3,0,23.4-1.9,33.5-5.6c10.1-3.8,18.8-8.7,26.2-14.9c7.4-6.2,13.4-13.2,18.2-21
			c4.8-7.9,8.1-15.9,10-24.1h30.7c-2.7,12.3-7.3,23.7-13.7,34.3c-6.4,10.6-14.7,19.9-24.7,27.8c-10.1,8-21.8,14.2-35.2,18.8
			c-13.4,4.6-28.3,6.8-45,6.8c-19.4,0-36.8-2.9-52.3-8.7c-15.5-5.8-28.8-14.2-39.9-25.3c-11-11-19.6-24.5-25.5-40.3
			c-6-15.8-9-33.9-9-54.2c0-15.5,2.9-30.6,8.6-45.3c5.7-14.7,14-27.7,24.7-39c10.8-11.3,24-20.3,39.7-27.2
			c15.7-6.8,33.4-10.3,53.3-10.3c16.9,0,31.9,1.9,45.2,5.6c13.2,3.8,24.7,8.9,34.5,15.5c9.8,6.6,18,14.5,24.5,23.6
			c6.5,9.1,11.7,19.1,15.5,30.1h-31.9c-7.4-17.8-18.2-31-32.5-39.6c-14.3-8.7-32.8-13-55.4-13c-14.2,0-27.1,2.7-38.8,8
			c-11.7,5.4-21.8,12.6-30.2,21.9c-8.4,9.2-15.1,19.9-19.8,31.9C198.6,370,196.3,382.6,196.3,395.8z"/>
	</g>
	<path class="st1" d="M275.5,348.2"/>
</g>
<g id="Mountains">
	<polygon class="st2" points="208.4,451.3 289.2,398.6 380.4,436.6 376.4,449.3 370.9,460.3 362.2,472.3 349.2,484.1 338.4,490.8 
		325.2,496.6 313.7,499.8 301.2,501.6 285.7,501.6 271.4,499.8 261.2,496.6 248.9,491.8 237.2,484.8 221.4,471.1 211.7,457.1 	"/>
	<polygon class="st2" points="201.2,433.6 240.4,409.1 257.2,419.4 208.4,451.3 202.4,437.3 	"/>
	<polygon class="st1" points="225.6,418.3 225.6,426 236.7,422.2 216.1,446.3 257.2,419.4 240.4,409.1 	"/>
	<polygon class="st1" points="289.2,398.6 281.3,442.7 297.3,430.2 308,430.2 302,450.1 316.7,446.3 343.3,467.3 343.3,443.3 
		371.7,432.9 	"/>
	<path class="st1" d="M484,390.9"/>
	<polygon class="st1" points="343.3,443.3 363,450.1 360.3,443.3 371.7,443.3 361.6,436.6 	"/>
</g>
</svg>
