<?xml version="1.0" encoding="utf-8"?>
<!-- Generator: Adobe Illustrator 21.1.0, SVG Export Plug-In . SVG Version: 6.00 Build 0)  -->
<svg version="1.1" id="Layer_1" xmlns="http://www.w3.org/2000/svg" xmlns:xlink="http://www.w3.org/1999/xlink" x="0px" y="0px"
	 viewBox="0 0 612 792" style="enable-background:new 0 0 612 792;" xml:space="preserve">
<style type="text/css">
	.st0{fill:url(#SVGID_1_);}
	.st1{fill:#56C8E0;}
	.st2{fill:#EDEDED;}
	.st3{fill:#28344F;}
</style>
<linearGradient id="SVGID_1_" gradientUnits="userSpaceOnUse" x1="207.5875" y1="368.6" x2="365.7125" y2="368.6">
	<stop  offset="2.413366e-02" style="stop-color:#F68632"/>
	<stop  offset="0.5242" style="stop-color:#FA6E54"/>
	<stop  offset="0.9794" style="stop-color:#FF5576"/>
</linearGradient>
<circle class="st0" cx="286.6" cy="368.6" r="79.1"/>
<g id="Sunset">
</g>
<g id="Letter_C">
	<g>
		<path class="st1" d="M188.5,373.5c0,18,2.8,33.7,8.4,47c5.6,13.3,12.9,24.3,22.1,33c9.1,8.7,19.4,15.2,30.9,19.5
			c11.4,4.3,23.2,6.5,35.2,6.5c12.3,0,23.4-1.9,33.5-5.6c10.1-3.8,18.8-8.7,26.2-14.9c7.4-6.2,13.4-13.2,18.2-21
			c4.8-7.9,8.1-15.9,10-24.1h30.7c-2.7,12.3-7.3,23.7-13.7,34.3c-6.4,10.6-14.7,19.9-24.7,27.8c-10.1,8-21.8,14.2-35.2,18.8
			c-13.4,4.6-28.3,6.8-45,6.8c-19.4,0-36.8-2.9-52.3-8.7s-28.8-14.2-39.9-25.3c-11-11-19.6-24.5-25.5-40.3c-6-15.8-9-33.9-9-54.2
			c0-15.5,2.9-30.6,8.6-45.3c5.7-14.7,14-27.7,24.7-39c10.8-11.3,24-20.3,39.7-27.2c15.7-6.8,33.4-10.3,53.3-10.3
			c16.9,0,31.9,1.9,45.2,5.6c13.2,3.8,24.7,8.9,34.5,15.5s18,14.5,24.5,23.6s11.7,19.1,15.5,30.1h-31.9c-7.4-17.8-18.2-31-32.5-39.6
			c-14.3-8.7-32.8-13-55.4-13c-14.2,0-27.1,2.7-38.8,8c-11.7,5.4-21.8,12.6-30.2,21.9c-8.4,9.2-15.1,19.9-19.8,31.9
			C190.8,347.7,188.5,360.3,188.5,373.5z"/>
	</g>
	<path class="st2" d="M267.8,325.9"/>
</g>
<g id="Mountains">
	<polygon class="st3" points="200.6,429 281.5,376.3 372.6,414.3 368.6,427 363.1,438 354.5,450 341.5,461.8 330.6,468.5 
		317.5,474.3 306,477.5 293.5,479.3 278,479.3 263.6,477.5 253.4,474.3 241.1,469.5 229.4,462.5 213.6,448.8 203.9,434.8 	"/>
	<polygon class="st3" points="193.4,411.3 232.6,386.8 249.4,397.1 200.6,429 194.6,415 	"/>
	<polygon class="st2" points="217.8,396 217.8,403.7 228.9,399.9 208.3,424 249.4,397.1 232.6,386.8 	"/>
	<polygon class="st2" points="281.5,376.3 273.5,420.4 289.5,407.9 300.2,407.9 294.2,427.8 309,424 335.5,445 335.5,421 364,410.6 
			"/>
	<path class="st2" d="M476.2,368.6"/>
	<polygon class="st2" points="335.5,421 355.2,427.8 352.5,421 364,421 353.9,414.3 	"/>
</g>
</svg>
