<?xml version="1.0" encoding="utf-8"?>
<!-- Generator: Adobe Illustrator 21.1.0, SVG Export Plug-In . SVG Version: 6.00 Build 0)  -->
<svg version="1.1" id="Layer_1" xmlns="http://www.w3.org/2000/svg" xmlns:xlink="http://www.w3.org/1999/xlink" x="0px" y="0px"
	 viewBox="0 0 1728 1296" style="enable-background:new 0 0 1728 1296;" xml:space="preserve">
<style type="text/css">
	.st0{fill:#333333;}
	.st1{fill:#CCCCCC;}
	.st2{fill:#FFFFFF;}
	.st3{fill:#D2D4DB;}
	.st4{fill:#28344F;}
</style>
<g id="Layer_2">
	<polygon class="st0" points="547.4,581.2 621.5,482.3 642.9,541.9 712.5,441.9 768.7,575.6 813.7,511.6 906.9,625 811.4,540.8 
		766.5,616.1 709.2,479 641.7,581.2 614.8,518.3 	"/>
</g>
<g id="Layer_5">
	<polygon class="st1" points="641.7,581.2 658.6,702.6 624.7,692.5 596.8,675.6 576.6,654.3 569.8,629.5 568.7,605.9 568.7,579.3 
		572.2,556.5 614.8,518.3 	"/>
</g>
<g id="Layer_4">
	<polygon class="st2" points="611.7,536.4 590.1,576.6 606.5,564.8 624.7,576.6 	"/>
	<polygon class="st3" points="704.1,517.7 680.5,566.1 704.1,552.6 722.1,566.1 	"/>
	<polygon class="st3" points="815.8,557.3 798.2,587.4 819.6,579.5 843.9,588.2 	"/>
</g>
<g id="Layer_3">
	<g>
		<path class="st4" d="M999.3,340c12.8-41.5-37.7-72.4-111.5-72.3C692,268.1,621.9,411.1,591.6,491.6
			c-29.2,78.4-66.4,216.9,123.5,216.5c87.9-0.2,167.6-37.2,189.8-86L960,622c-37.5,70-134.7,112.3-260.2,112.5
			C477.1,734.9,495.6,591.3,531.7,495C570.2,394.1,659,241.8,897,241.4c103.2-0.2,170.1,40.5,157.3,98.5L999.3,340z"/>
	</g>
</g>
</svg>
